<svg width="665" height="336" viewBox="0 0 665 336" fill="none" xmlns="http://www.w3.org/2000/svg">
<g clip-path="url(#clip0_65_65)">
<path d="M88.1583 181.83L111.799 205.634C114.179 208.045 114.179 211.921 111.799 214.332L39.107 287.516C36.7276 289.927 32.8535 289.927 30.4742 287.516L6.8331 263.711C4.45374 261.3 4.45374 257.425 6.8331 255.014L79.5255 181.83C81.9049 179.419 85.779 179.419 88.1583 181.83Z" fill="#141414"/>
<path d="M-0.0305176 149.389L-0.0305176 182.624C-0.0305176 186.113 2.79656 188.941 6.28393 188.941H85.1078C88.5951 188.941 91.4222 186.113 91.4222 182.624V149.389C91.4222 145.9 88.5951 143.071 85.1078 143.071H6.28393C2.79656 143.071 -0.0305176 145.9 -0.0305176 149.389Z" fill="#141414"/>
<path d="M123.056 139.012L100.086 162.115C97.6757 164.526 93.8016 164.526 91.3917 162.115L5.12478 75.3201C2.71492 72.9091 2.71492 68.9722 5.12478 66.5612L28.0947 43.4586C30.5046 41.0476 34.3787 41.0476 36.7885 43.4586L123.056 130.284C125.465 132.695 125.465 136.632 123.056 139.043V139.012Z" fill="#141414"/>
<path d="M133.275 192.481L114.301 171.667C112.379 169.561 112.379 166.326 114.301 164.221L133.275 143.407C133.519 143.163 133.763 142.98 134.068 142.888V10.9257C134.068 4.82195 129.157 -0.12207 123.117 -0.12207H99.4756C93.4051 -0.12207 88.5244 4.82195 88.5244 10.9257V321.453C88.5244 327.556 93.4357 332.5 99.4756 332.5H123.117C129.187 332.5 134.068 327.556 134.068 321.453V193C133.244 192.756 133.519 192.725 133.275 192.481Z" fill="#141414"/>
<path d="M155.634 3.26538H276.86C279.575 3.26538 281.771 5.46272 281.771 8.2094V36.4391C281.771 39.1553 279.575 41.3831 276.86 41.3831H243.061C240.346 41.3831 238.149 43.5805 238.149 46.3272V151.433C238.149 154.149 235.953 156.377 233.238 156.377H198.585C195.87 156.377 193.674 154.18 193.674 151.433V46.2966C193.674 43.5805 191.477 41.3526 188.762 41.3526H155.604C152.889 41.3526 150.693 39.1553 150.693 36.4086V8.2094C150.693 5.49324 152.889 3.26538 155.604 3.26538H155.634Z" fill="#141414"/>
<path d="M297.084 3.26538H327.497C330.212 3.26538 332.408 5.46272 332.408 8.2094V28.9621C332.408 31.6782 330.212 33.9061 327.497 33.9061H297.084C294.369 33.9061 292.173 31.7087 292.173 28.9621V8.2094C292.173 5.49324 294.369 3.26538 297.084 3.26538ZM297.084 47.1512H327.497C330.212 47.1512 332.408 49.3485 332.408 52.0952V151.403C332.408 154.119 330.212 156.347 327.497 156.347H297.084C294.369 156.347 292.173 154.149 292.173 151.403V52.0952C292.173 49.379 294.369 47.1512 297.084 47.1512Z" fill="#141414"/>
<path d="M351.748 3.26538H383.229C385.944 3.26538 388.14 5.46272 388.14 8.2094V151.433C388.14 154.149 385.944 156.377 383.229 156.377H351.748C349.033 156.377 346.837 154.18 346.837 151.433V8.2094C346.837 5.49324 349.033 3.26538 351.748 3.26538Z" fill="#141414"/>
<path d="M407.48 3.26538H438.961C441.676 3.26538 443.872 5.46272 443.872 8.2094V151.433C443.872 154.149 441.676 156.377 438.961 156.377H407.48C404.765 156.377 402.569 154.18 402.569 151.433V8.2094C402.569 5.49324 404.765 3.26538 407.48 3.26538Z" fill="#141414"/>
<path d="M159.295 179.327H280.368C283.113 179.327 285.34 181.555 285.34 184.332V212.44C285.34 215.217 283.113 217.445 280.368 217.445H246.721C243.976 217.445 241.749 219.673 241.749 222.45V327.404C241.749 330.181 239.522 332.409 236.777 332.409H202.276C199.531 332.409 197.304 330.181 197.304 327.404V222.45C197.304 219.673 195.077 217.445 192.331 217.445H159.326C156.58 217.445 154.353 215.217 154.353 212.44V184.332C154.353 181.555 156.58 179.327 159.326 179.327H159.295Z" fill="#141414"/>
<path d="M265.787 277.597C265.787 244.637 289.397 219.582 323.654 219.582C340.675 219.582 353.64 225.136 363.645 234.353C375.756 245.553 381.948 262.918 382.558 282.419C382.65 285.288 380.423 287.669 377.586 287.669H311.727C308.249 287.669 305.778 291.178 307.059 294.444C310.354 303.019 316.699 308.025 326.46 308.025C332.683 308.025 337.411 305.827 340.492 301.585C341.316 300.456 342.689 299.876 344.092 299.876H373.376C377.006 299.876 379.538 303.721 377.891 306.987C374.261 314.25 367.916 321.025 359.893 326.214C349.888 332.653 339.059 335.43 325.21 335.43C289.672 335.43 265.848 311.015 265.848 277.628L265.787 277.597ZM311.635 266.245H336.283C339.669 266.245 342.17 262.857 341.011 259.622C338.113 251.443 332.195 246.743 324.508 246.743C315.692 246.743 309.957 251.504 306.937 259.53C305.717 262.765 308.219 266.214 311.635 266.214V266.245Z" fill="#141414"/>
<path d="M388.11 278.025C388.11 244.851 411.934 220.009 447.655 220.009C475.811 220.009 495.364 235.39 500.458 257.669C501.16 260.751 498.719 263.681 495.578 263.681H466.537C464.371 263.681 462.48 262.247 461.809 260.171C459.369 252.511 454.823 248.269 447.197 248.269C434.873 248.269 428.894 259.622 428.894 278.025C428.894 296.427 435.27 307.353 447.624 307.353C456.257 307.353 461.077 302.195 462.816 292.491C463.243 290.08 465.286 288.309 467.696 288.309H496.767C499.726 288.309 502.075 290.904 501.739 293.833C498.963 318.035 477.885 335.827 447.594 335.827C411.873 335.827 388.049 311.198 388.049 278.025H388.11Z" fill="#141414"/>
<path d="M551.676 235.634H552.316C560.4 226.204 570.192 219.795 585.292 219.795C610.397 219.795 623.361 236.702 623.361 261.758V327.404C623.361 330.181 621.134 332.409 618.389 332.409H588.129C585.383 332.409 583.156 330.181 583.156 327.404V271.616C583.156 260.263 578.489 252.786 568.056 252.786C557.624 252.786 551.676 261.789 551.676 273.569V327.434C551.676 330.211 549.449 332.439 546.703 332.439H516.443C513.697 332.439 511.47 330.211 511.47 327.434V184.363C511.47 181.586 513.697 179.358 516.443 179.358H546.703C549.449 179.358 551.676 181.586 551.676 184.363V235.665V235.634Z" fill="#141414"/>
<path d="M649.809 326.58C658.199 326.58 665 319.734 665 311.29C665 302.845 658.199 296 649.809 296C641.419 296 634.617 302.845 634.617 311.29C634.617 319.734 641.419 326.58 649.809 326.58Z" fill="#11EFE3"/>
</g>
<defs>
<clipPath id="clip0_65_65">
<rect width="665" height="335.705" fill="white"/>
</clipPath>
</defs>
</svg>
