<svg width="19" height="16" viewBox="0 0 19 16" fill="none" xmlns="http://www.w3.org/2000/svg">
<g filter="url(#filter0_ii_84_659)">
<path d="M6.92395 8.5C6.92395 7.2574 7.93135 6.25 9.17395 6.25C10.4166 6.25 11.424 7.2574 11.424 8.5C11.424 9.7426 10.4166 10.75 9.17395 10.75C7.93135 10.75 6.92395 9.7426 6.92395 8.5Z" fill="white"/>
<path fill-rule="evenodd" clip-rule="evenodd" d="M4.64759 3.1424C4.64759 1.4069 6.0545 0 7.79 0H10.5577C12.2933 0 13.7002 1.4069 13.7002 3.1424C13.7002 3.1573 13.7116 3.1696 13.7264 3.1708L15.956 3.3519C16.9547 3.433 17.7761 4.1716 17.9625 5.1561C18.4382 7.6684 18.4736 10.2443 18.0673 12.7687L17.9701 13.3729C17.7867 14.5118 16.8494 15.3783 15.6996 15.4717L13.7573 15.6294C10.7067 15.8772 7.64109 15.8772 4.59049 15.6294L2.6482 15.4717C1.4984 15.3783 0.560995 14.5118 0.377695 13.3729L0.280396 12.7687C-0.125904 10.2443 -0.0904057 7.6684 0.385294 5.1561C0.571694 4.1716 1.39309 3.433 2.39179 3.3519L4.6214 3.1708C4.6362 3.1696 4.64759 3.1573 4.64759 3.1424ZM9.17389 4.75C7.10279 4.75 5.4239 6.4289 5.4239 8.5C5.4239 10.5711 7.10279 12.25 9.17389 12.25C11.245 12.25 12.9239 10.5711 12.9239 8.5C12.9239 6.4289 11.245 4.75 9.17389 4.75Z" fill="white"/>
</g>
<defs>
<filter id="filter0_ii_84_659" x="-1" y="0" width="20.3478" height="16.8152" filterUnits="userSpaceOnUse" color-interpolation-filters="sRGB">
<feFlood flood-opacity="0" result="BackgroundImageFix"/>
<feBlend mode="normal" in="SourceGraphic" in2="BackgroundImageFix" result="shape"/>
<feColorMatrix in="SourceAlpha" type="matrix" values="0 0 0 0 0 0 0 0 0 0 0 0 0 0 0 0 0 0 127 0" result="hardAlpha"/>
<feOffset dx="-1" dy="1"/>
<feGaussianBlur stdDeviation="1"/>
<feComposite in2="hardAlpha" operator="arithmetic" k2="-1" k3="1"/>
<feColorMatrix type="matrix" values="0 0 0 0 0.156863 0 0 0 0 0.0980392 0 0 0 0 0.0627451 0 0 0 0.3 0"/>
<feBlend mode="normal" in2="shape" result="effect1_innerShadow_84_659"/>
<feColorMatrix in="SourceAlpha" type="matrix" values="0 0 0 0 0 0 0 0 0 0 0 0 0 0 0 0 0 0 127 0" result="hardAlpha"/>
<feOffset dx="1" dy="1"/>
<feGaussianBlur stdDeviation="0.5"/>
<feComposite in2="hardAlpha" operator="arithmetic" k2="-1" k3="1"/>
<feColorMatrix type="matrix" values="0 0 0 0 0.7 0 0 0 0 0.7 0 0 0 0 0.7 0 0 0 0.25 0"/>
<feBlend mode="normal" in2="effect1_innerShadow_84_659" result="effect2_innerShadow_84_659"/>
</filter>
</defs>
</svg>
