<svg width="20" height="19" viewBox="0 0 20 19" fill="none" xmlns="http://www.w3.org/2000/svg">
<g filter="url(#filter0_ii_83_649)">
<path d="M17.8977 2.5H4.0851L2.905 0.3846C2.7725 0.1472 2.5219 0 2.25 0H0.75C0.3358 0 0 0.3358 0 0.75C0 1.1642 0.3358 1.5 0.75 1.5H1.8096L2.9743 3.5877L5.6604 9.5309L5.6631 9.5369L5.8997 10.0604L3.2029 12.937C3.009 13.1439 2.9483 13.4424 3.046 13.7085C3.1437 13.9747 3.3832 14.163 3.6649 14.1952L6.123 14.4761C9.1977 14.8275 12.3024 14.8275 15.377 14.4761L17.8352 14.1952C18.2467 14.1481 18.5422 13.7764 18.4952 13.3648C18.4481 12.9533 18.0764 12.6578 17.6649 12.7049L15.2067 12.9858C12.2452 13.3242 9.2548 13.3242 6.2933 12.9858L5.3178 12.8743L7.2972 10.763C7.3163 10.7425 7.3341 10.7213 7.3505 10.6994L8.1033 10.7974C9.1583 10.9347 10.2246 10.9616 11.2851 10.8777C13.7586 10.6821 16.051 9.5051 17.6515 7.6091L18.2295 6.9243C18.249 6.9013 18.267 6.8771 18.2835 6.8519L19.3609 5.2101C20.1245 4.0463 19.2897 2.5 17.8977 2.5Z" fill="url(#paint0_linear_83_649)"/>
<path d="M5.25 15.75C4.4216 15.75 3.75 16.4216 3.75 17.25C3.75 18.0784 4.4216 18.75 5.25 18.75C6.0784 18.75 6.75 18.0784 6.75 17.25C6.75 16.4216 6.0784 15.75 5.25 15.75Z" fill="url(#paint1_linear_83_649)"/>
<path d="M14.75 17.25C14.75 16.4216 15.4216 15.75 16.25 15.75C17.0784 15.75 17.75 16.4216 17.75 17.25C17.75 18.0784 17.0784 18.75 16.25 18.75C15.4216 18.75 14.75 18.0784 14.75 17.25Z" fill="url(#paint2_linear_83_649)"/>
</g>
<defs>
<filter id="filter0_ii_83_649" x="-1" y="0" width="21.6506" height="19.75" filterUnits="userSpaceOnUse" color-interpolation-filters="sRGB">
<feFlood flood-opacity="0" result="BackgroundImageFix"/>
<feBlend mode="normal" in="SourceGraphic" in2="BackgroundImageFix" result="shape"/>
<feColorMatrix in="SourceAlpha" type="matrix" values="0 0 0 0 0 0 0 0 0 0 0 0 0 0 0 0 0 0 127 0" result="hardAlpha"/>
<feOffset dx="-1" dy="1"/>
<feGaussianBlur stdDeviation="1"/>
<feComposite in2="hardAlpha" operator="arithmetic" k2="-1" k3="1"/>
<feColorMatrix type="matrix" values="0 0 0 0 0.156863 0 0 0 0 0.0980392 0 0 0 0 0.0627451 0 0 0 0.3 0"/>
<feBlend mode="normal" in2="shape" result="effect1_innerShadow_83_649"/>
<feColorMatrix in="SourceAlpha" type="matrix" values="0 0 0 0 0 0 0 0 0 0 0 0 0 0 0 0 0 0 127 0" result="hardAlpha"/>
<feOffset dx="1" dy="1"/>
<feGaussianBlur stdDeviation="0.5"/>
<feComposite in2="hardAlpha" operator="arithmetic" k2="-1" k3="1"/>
<feColorMatrix type="matrix" values="0 0 0 0 0.7 0 0 0 0 0.7 0 0 0 0 0.7 0 0 0 0.25 0"/>
<feBlend mode="normal" in2="effect1_innerShadow_83_649" result="effect2_innerShadow_83_649"/>
</filter>
<linearGradient id="paint0_linear_83_649" x1="-0.499999" y1="-1.17917" x2="17.543" y2="21.2846" gradientUnits="userSpaceOnUse">
<stop stop-color="white"/>
<stop offset="1" stop-color="#999999"/>
</linearGradient>
<linearGradient id="paint1_linear_83_649" x1="3.67367" y1="15.51" x2="7.42575" y2="19.0139" gradientUnits="userSpaceOnUse">
<stop stop-color="white"/>
<stop offset="1" stop-color="#999999"/>
</linearGradient>
<linearGradient id="paint2_linear_83_649" x1="14.6737" y1="15.51" x2="18.4257" y2="19.0139" gradientUnits="userSpaceOnUse">
<stop stop-color="white"/>
<stop offset="1" stop-color="#999999"/>
</linearGradient>
</defs>
</svg>
