<svg width="18" height="13" viewBox="0 0 18 13" fill="none" xmlns="http://www.w3.org/2000/svg">
<path d="M10.628 3H0.75C0.335786 3 0 2.66421 0 2.25C0 1.83579 0.335786 1.5 0.75 1.5H10.628C10.9369 0.626106 11.7703 0 12.75 0C13.7297 0 14.5631 0.626106 14.872 1.5H16.75C17.1642 1.5 17.5 1.83579 17.5 2.25C17.5 2.66421 17.1642 3 16.75 3H14.872C14.5631 3.87389 13.7297 4.5 12.75 4.5C11.7703 4.5 10.9369 3.87389 10.628 3Z" fill="white"/>
<path d="M16.75 11C17.1642 11 17.5 10.6642 17.5 10.25C17.5 9.83579 17.1642 9.5 16.75 9.5H6.87197C6.56309 8.62611 5.72966 8 4.75 8C3.77034 8 2.93691 8.62611 2.62803 9.5H0.75C0.335787 9.5 0 9.83579 0 10.25C0 10.6642 0.335787 11 0.75 11H2.62803C2.93691 11.8739 3.77034 12.5 4.75 12.5C5.72966 12.5 6.56309 11.8739 6.87197 11H16.75Z" fill="white"/>
</svg>
