<svg width="17" height="16" viewBox="0 0 17 16" fill="none" xmlns="http://www.w3.org/2000/svg">
<path fill-rule="evenodd" clip-rule="evenodd" d="M3.95052 10.4543C3.94356 10.7409 4.13468 10.9954 4.41407 11.0716C4.69345 11.1477 4.98936 11.0259 5.13174 10.7762L5.8914 9.44388C6.79232 7.86379 8.58576 6.99811 10.399 7.26811L10.5247 7.28683C10.5473 7.85146 10.5794 8.41581 10.6209 8.97965L10.678 9.75484C10.7245 10.3852 11.435 10.7376 11.9733 10.3973C13.7394 9.28083 15.2747 7.84223 16.4974 6.15818L16.8814 5.6293C17.0395 5.4115 17.0395 5.11815 16.8814 4.90035L16.4974 4.37147C15.2747 2.68742 13.7394 1.24882 11.9733 0.132349C11.435 -0.207986 10.7245 0.144416 10.678 0.774818L10.6209 1.55C10.5874 2.00458 10.5601 2.45948 10.5389 2.9146L9.68167 2.9146C6.5963 2.91459 4.07455 5.35027 4.00039 8.40196L3.95052 10.4543ZM10.5869 6.03258C8.5501 5.72929 6.53268 6.54059 5.28304 8.10526C5.50329 5.88695 7.39314 4.16404 9.68167 4.16404L11.1455 4.16404C11.4858 4.16404 11.7649 3.89719 11.7766 3.56068C11.7987 2.9203 11.8333 2.28023 11.8805 1.64084L11.885 1.57882C13.2687 2.54644 14.4812 3.73624 15.4717 5.10042L15.5911 5.26483L15.4717 5.42923C14.4812 6.79341 13.2687 7.98321 11.885 8.95083L11.8805 8.88881C11.8274 8.16923 11.7902 7.44879 11.7688 6.72801C11.7599 6.42596 11.5337 6.17356 11.2316 6.12858L10.5869 6.03258Z" fill="white"/>
<path d="M14.3828 12.4206C14.4821 11.5807 14.5521 10.7383 14.593 9.8948C14.5975 9.80349 14.6393 9.71795 14.7086 9.65745C15.0145 9.39027 15.3109 9.11263 15.5973 8.82504C15.705 8.71687 15.8932 8.79251 15.8899 8.94432C15.8636 10.1537 15.7794 11.3622 15.6371 12.5657C15.4379 14.2504 14.0704 15.5706 12.3764 15.758C9.45785 16.0807 6.441 16.0807 3.52244 15.758C1.82846 15.5706 0.460911 14.2504 0.261754 12.5657C-0.0872513 9.61343 -0.0872513 6.63097 0.261754 3.6787C0.460911 1.99401 1.82846 0.673753 3.52244 0.486439C5.45124 0.273158 7.42298 0.20083 9.3809 0.269453C9.54574 0.275231 9.65923 0.434892 9.63868 0.596814C9.6344 0.630537 9.63098 0.664644 9.62844 0.699121L9.58526 1.28538C9.57535 1.41998 9.45921 1.52238 9.32289 1.51765C7.43104 1.45198 5.5257 1.52215 3.66271 1.72815C2.54287 1.85198 1.64583 2.72627 1.51607 3.82385C1.17847 6.67968 1.17847 9.56472 1.51607 12.4206C1.64583 13.5181 2.54287 14.3924 3.66271 14.5162C6.48804 14.8287 9.41081 14.8287 12.2361 14.5162C13.356 14.3924 14.253 13.5181 14.3828 12.4206Z" fill="white"/>
</svg>
