<svg width="13" height="19" viewBox="0 0 13 19" fill="none" xmlns="http://www.w3.org/2000/svg">
<path d="M7.47258 0.00221023C7.35433 -0.0156856 7.25 0.0774249 7.25 0.197026L7.25 6.30471C7.25 6.47039 7.38431 6.60471 7.55 6.60471H12.7C12.8657 6.60471 13.0007 6.4703 12.9932 6.30478C12.8533 3.2268 10.574 0.491777 7.51376 0.00857603C7.50004 0.00640985 7.48631 0.00428792 7.47258 0.00221023Z" fill="white"/>
<path d="M5.52741 0.00221042C5.64567 -0.0156854 5.75 0.0774252 5.75 0.197026L5.75 6.30471C5.75 6.4704 5.61569 6.60471 5.45 6.60471H0.3C0.134315 6.60471 -0.000706995 6.4703 0.00681732 6.30478C0.146743 3.2268 2.42597 0.491777 5.48624 0.00857591C5.49996 0.00640984 5.51369 0.00428801 5.52741 0.00221042Z" fill="white"/>
<path d="M0.3 8.10471C0.134315 8.10471 0 8.23902 0 8.40471V12.2804C0 15.4788 2.32691 18.202 5.48624 18.7008C6.15792 18.8069 6.84208 18.8069 7.51376 18.7008C10.6731 18.202 13 15.4788 13 12.2804L13 8.40471C13 8.23902 12.8657 8.10471 12.7 8.10471H0.3Z" fill="white"/>
</svg>
