<svg width="20" height="19" viewBox="0 0 20 19" fill="none" xmlns="http://www.w3.org/2000/svg">
<path fill-rule="evenodd" clip-rule="evenodd" d="M16.5 18.3088H3.5C1.567 18.3088 0 16.7418 0 14.8088V1.75199C0 0.684438 1.05584 0.00764003 1.9849 0.330193C2.11762 0.376272 2.24776 0.442746 2.37186 0.531389L2.5469 0.656423C3.41493 1.27644 4.58891 1.27369 5.45938 0.651933C6.67632 -0.217311 8.32368 -0.217311 9.54062 0.651933C10.4111 1.27369 11.5851 1.27644 12.4531 0.656422L12.6281 0.531389C13.6209 -0.177756 15 0.53193 15 1.75199V9.30879H18.5C18.9142 9.30879 19.25 9.64458 19.25 10.0588V15.5588C19.25 17.0776 18.0188 18.3088 16.5 18.3088ZM15.25 10.8088V15.5588C15.25 16.2491 15.8096 16.8088 16.5 16.8088C17.1904 16.8088 17.75 16.2491 17.75 15.5588V10.8088H15.25ZM11 6.55879C11 6.14458 10.6642 5.80879 10.25 5.80879H4.25C3.83579 5.80879 3.5 6.14458 3.5 6.55879C3.5 6.97301 3.83579 7.30879 4.25 7.30879H10.25C10.6642 7.30879 11 6.97301 11 6.55879ZM10 9.55879C10 9.14458 9.66421 8.80879 9.25 8.80879H4.25C3.83579 8.80879 3.5 9.14458 3.5 9.55879C3.5 9.97301 3.83579 10.3088 4.25 10.3088H9.25C9.66421 10.3088 10 9.97301 10 9.55879ZM10.25 11.8088C10.6642 11.8088 11 12.1446 11 12.5588C11 12.973 10.6642 13.3088 10.25 13.3088H4.25C3.83579 13.3088 3.5 12.973 3.5 12.5588C3.5 12.1446 3.83579 11.8088 4.25 11.8088H10.25Z" fill="white"/>
</svg>
