<svg width="19" height="19" viewBox="0 0 19 19" fill="none" xmlns="http://www.w3.org/2000/svg">
<path d="M3.78033 0.21967C4.07322 0.512563 4.07322 0.987437 3.78033 1.28033L1.28033 3.78033C0.987437 4.07322 0.512563 4.07322 0.21967 3.78033C-0.0732233 3.48744 -0.0732233 3.01256 0.21967 2.71967L2.71967 0.21967C3.01256 -0.0732233 3.48744 -0.0732233 3.78033 0.21967Z" fill="white"/>
<path fill-rule="evenodd" clip-rule="evenodd" d="M9.25 1.25C4.55558 1.25 0.75 5.05558 0.75 9.75C0.75 14.4444 4.55558 18.25 9.25 18.25C13.9444 18.25 17.75 14.4444 17.75 9.75C17.75 5.05558 13.9444 1.25 9.25 1.25ZM10 4.75C10 4.33579 9.66421 4 9.25 4C8.83579 4 8.5 4.33579 8.5 4.75V9.75C8.5 10.0086 8.63321 10.2489 8.8525 10.386L11.8525 12.261C12.2038 12.4805 12.6665 12.3738 12.886 12.0225C13.1055 11.6712 12.9988 11.2085 12.6475 10.989L10 9.33431V4.75Z" fill="white"/>
<path d="M14.7197 1.28033C14.4268 0.987437 14.4268 0.512563 14.7197 0.21967C15.0126 -0.0732233 15.4874 -0.0732233 15.7803 0.21967L18.2803 2.71967C18.5732 3.01256 18.5732 3.48744 18.2803 3.78033C17.9874 4.07322 17.5126 4.07322 17.2197 3.78033L14.7197 1.28033Z" fill="white"/>
</svg>
