<svg width="20" height="20" viewBox="0 0 20 20" fill="none" xmlns="http://www.w3.org/2000/svg">
<path d="M16.7747 3.32349C16.8768 3.25637 16.8943 3.11392 16.81 3.02547C15.0341 1.16157 12.5277 0 9.75 0C9.01308 0 8.29526 0.0817534 7.60511 0.236685C7.4643 0.268296 7.40743 0.435742 7.49576 0.549871C8.82472 2.26704 10.0244 4.0895 11.0801 6.00263C11.1279 6.08938 11.2319 6.12853 11.3247 6.09377C13.2533 5.37106 15.0792 4.43836 16.7747 3.32349Z" fill="white"/>
<path d="M0.426968 7.81047C0.304871 7.80511 0.216915 7.69151 0.244098 7.57236C0.922235 4.59982 2.95884 2.14441 5.66615 0.893898C5.74834 0.855934 5.84564 0.879585 5.9022 0.950281C7.27543 2.66685 8.51265 4.4968 9.59758 6.42381C9.66001 6.5347 9.60351 6.67463 9.48147 6.71071C7.00122 7.44389 4.37503 7.8374 1.6565 7.8374C1.24444 7.8374 0.834534 7.82836 0.426968 7.81047Z" fill="white"/>
<path d="M2.55045 15.966C2.47177 16.0642 2.32309 16.0685 2.24277 15.9717C0.842081 14.2834 0 12.1151 0 9.75C0 9.66418 0.00110883 9.57862 0.00331295 9.49333C0.00618578 9.38216 0.10116 9.29667 0.21223 9.30211C0.690758 9.32554 1.17227 9.3374 1.6565 9.3374C4.65577 9.3374 7.54932 8.88276 10.2717 8.03865C10.3653 8.00964 10.4663 8.05199 10.5102 8.13955C10.8176 8.75218 11.1099 9.37362 11.3867 10.0034C11.4363 10.1163 11.372 10.2463 11.2529 10.2781C7.7719 11.2074 4.73972 13.2351 2.55045 15.966Z" fill="white"/>
<path d="M14.0217 18.3521C14.0394 18.4407 13.9952 18.5302 13.9135 18.5689C12.6509 19.166 11.2395 19.5 9.75 19.5C7.42979 19.5 5.29887 18.6895 3.62488 17.3363C3.54197 17.2693 3.52859 17.1484 3.59415 17.0644C5.64727 14.4314 8.549 12.4944 11.8878 11.6637C11.9846 11.6396 12.084 11.6918 12.1197 11.7849C12.9299 13.8952 13.5695 16.0898 14.0217 18.3521Z" fill="white"/>
<path d="M19.1242 11.6356C19.2277 11.6605 19.2925 11.7634 19.2694 11.8674C18.764 14.1497 17.4588 16.1314 15.6628 17.5031C15.5481 17.5908 15.383 17.5267 15.3524 17.3855C14.9207 15.3955 14.3487 13.4579 13.6475 11.5834C13.6022 11.4625 13.6809 11.3305 13.8092 11.3157C14.3846 11.2495 14.9698 11.2154 15.563 11.2154C16.7902 11.2154 17.9826 11.361 19.1242 11.6356Z" fill="white"/>
<path d="M17.7229 4.49476C17.8156 4.43318 17.941 4.45796 18.0003 4.55201C18.9503 6.0566 19.5 7.8391 19.5 9.75C19.5 9.81285 19.4994 9.87556 19.4982 9.93812C19.4958 10.064 19.3768 10.1534 19.254 10.1257C18.0662 9.85712 16.8308 9.71545 15.563 9.71545C14.7387 9.71545 13.9283 9.7753 13.1361 9.89088C13.0454 9.90411 12.9569 9.85494 12.9208 9.77068C12.6199 9.0679 12.3005 8.37493 11.9632 7.69239C11.9106 7.58592 11.9612 7.45712 12.072 7.41453C14.0715 6.64649 15.9646 5.66382 17.7229 4.49476Z" fill="white"/>
</svg>
