<svg width="19" height="19" viewBox="0 0 19 19" fill="none" xmlns="http://www.w3.org/2000/svg">
<path d="M7.0685 6.27256C6.6945 6.27256 6.4305 6.30556 6.2875 6.33856V8.84656C6.4525 8.89056 6.6725 8.90156 6.9475 8.90156C7.9595 8.90156 8.5755 8.40656 8.5755 7.53756C8.5755 6.71256 8.0035 6.27256 7.0685 6.27256Z" fill="white"/>
<path fill-rule="evenodd" clip-rule="evenodd" d="M3.96162 0.289034C7.40974 -0.0963446 10.9744 -0.0963445 14.4226 0.289034C16.321 0.501208 17.8522 1.99699 18.075 3.90204C18.4872 7.42704 18.4872 10.9881 18.075 14.5131C17.8522 16.4181 16.321 17.9139 14.4226 18.1261C10.9744 18.5115 7.40974 18.5115 3.96162 18.1261C2.06322 17.9139 0.532024 16.4181 0.309211 14.5131C-0.10307 10.9881 -0.10307 7.42704 0.309211 3.90204C0.532024 1.99699 2.06322 0.501208 3.96162 0.289034ZM6.2875 12.7076H4.9455V5.39256C5.4295 5.30456 6.1005 5.23856 7.0135 5.23856C8.0035 5.23856 8.7295 5.44756 9.2025 5.84356C9.6425 6.20656 9.9285 6.78956 9.9285 7.48256C9.9285 8.18656 9.7085 8.76956 9.2905 9.16556C8.7515 9.70456 7.9045 9.95756 6.9475 9.95756C6.6945 9.95756 6.4635 9.94656 6.2875 9.91356V12.7076ZM11.6567 12.8286C11.0077 12.8286 10.4247 12.6636 10.0287 12.4436L10.2927 11.4646C10.6007 11.6516 11.1837 11.8496 11.6677 11.8496C12.2617 11.8496 12.5257 11.6076 12.5257 11.2556C12.5257 10.8926 12.3057 10.7056 11.6457 10.4746C10.6007 10.1116 10.1607 9.53956 10.1717 8.91256C10.1717 7.96656 10.9527 7.22956 12.1957 7.22956C12.7897 7.22956 13.3067 7.38356 13.6147 7.54856L13.3507 8.50556C13.1197 8.37356 12.6907 8.19756 12.2177 8.19756C11.7337 8.19756 11.4697 8.42856 11.4697 8.75856C11.4697 9.09956 11.7227 9.26456 12.4047 9.50656C13.3727 9.85856 13.8237 10.3536 13.8347 11.1456C13.8347 12.1136 13.0757 12.8286 11.6567 12.8286Z" fill="white"/>
</svg>
