<svg width="114" height="25" viewBox="0 0 114 25" fill="none" xmlns="http://www.w3.org/2000/svg">
<path d="M11.5489 2.92705C11.8483 2.00574 13.1517 2.00574 13.4511 2.92705L15.0819 7.9463C15.2158 8.35833 15.5997 8.63729 16.033 8.63729H21.3105C22.2792 8.63729 22.682 9.8769 21.8983 10.4463L17.6287 13.5484C17.2782 13.803 17.1315 14.2544 17.2654 14.6664L18.8963 19.6857C19.1956 20.607 18.1411 21.3731 17.3574 20.8037L13.0878 17.7016C12.7373 17.447 12.2627 17.447 11.9122 17.7016L7.64258 20.8037C6.85887 21.3731 5.80439 20.607 6.10374 19.6857L7.7346 14.6664C7.86847 14.2544 7.72181 13.803 7.37132 13.5484L3.10169 10.4463C2.31798 9.8769 2.72075 8.63729 3.68948 8.63729H8.96703C9.40026 8.63729 9.78421 8.35833 9.91809 7.9463L11.5489 2.92705Z" fill="#FFD200"/>
<path d="M78.5489 2.92705C78.8483 2.00574 80.1517 2.00574 80.4511 2.92705L82.0819 7.9463C82.2158 8.35833 82.5997 8.63729 83.033 8.63729H88.3105C89.2792 8.63729 89.682 9.8769 88.8983 10.4463L84.6287 13.5484C84.2782 13.803 84.1315 14.2544 84.2654 14.6664L85.8963 19.6857C86.1956 20.607 85.1411 21.3731 84.3574 20.8037L80.0878 17.7016C79.7373 17.447 79.2627 17.447 78.9122 17.7016L74.6426 20.8037C73.8589 21.3731 72.8044 20.607 73.1037 19.6857L74.7346 14.6664C74.8685 14.2544 74.7218 13.803 74.3713 13.5484L70.1017 10.4463C69.318 9.8769 69.7208 8.63729 70.6895 8.63729H75.967C76.4003 8.63729 76.7842 8.35833 76.9181 7.9463L78.5489 2.92705Z" fill="#FFD200"/>
<path d="M100.549 2.92705C100.848 2.00574 102.152 2.00574 102.451 2.92705L104.082 7.9463C104.216 8.35833 104.6 8.63729 105.033 8.63729H110.311C111.279 8.63729 111.682 9.8769 110.898 10.4463L106.629 13.5484C106.278 13.803 106.132 14.2544 106.265 14.6664L107.896 19.6857C108.196 20.607 107.141 21.3731 106.357 20.8037L102.088 17.7016C101.737 17.447 101.263 17.447 100.912 17.7016L96.6426 20.8037C95.8589 21.3731 94.8044 20.607 95.1037 19.6857L96.7346 14.6664C96.8685 14.2544 96.7218 13.803 96.3713 13.5484L92.1017 10.4463C91.318 9.8769 91.7208 8.63729 92.6895 8.63729H97.967C98.4003 8.63729 98.7842 8.35833 98.9181 7.9463L100.549 2.92705Z" fill="#FFD200"/>
<path d="M33.5489 2.92705C33.8483 2.00574 35.1517 2.00574 35.4511 2.92705L37.0819 7.9463C37.2158 8.35833 37.5997 8.63729 38.033 8.63729H43.3105C44.2792 8.63729 44.682 9.8769 43.8983 10.4463L39.6287 13.5484C39.2782 13.803 39.1315 14.2544 39.2654 14.6664L40.8963 19.6857C41.1956 20.607 40.1411 21.3731 39.3574 20.8037L35.0878 17.7016C34.7373 17.447 34.2627 17.447 33.9122 17.7016L29.6426 20.8037C28.8589 21.3731 27.8044 20.607 28.1037 19.6857L29.7346 14.6664C29.8685 14.2544 29.7218 13.803 29.3713 13.5484L25.1017 10.4463C24.318 9.8769 24.7208 8.63729 25.6895 8.63729H30.967C31.4003 8.63729 31.7842 8.35833 31.9181 7.9463L33.5489 2.92705Z" fill="#FFD200"/>
<path d="M56.0526 2.80357C56.3589 1.89708 57.6411 1.89708 57.9474 2.80357L59.6889 7.95742C59.8263 8.36376 60.2074 8.63729 60.6363 8.63729H66.1862C67.1644 8.63729 67.5607 9.89686 66.7588 10.4571L62.3373 13.546C61.973 13.8005 61.8203 14.2649 61.9626 14.6859L63.6673 19.7305C63.9763 20.6449 62.9385 21.4232 62.1472 20.8704L57.5727 17.6747C57.2287 17.4344 56.7713 17.4344 56.4273 17.6747L51.8528 20.8704C51.0615 21.4232 50.0237 20.6449 50.3327 19.7305L52.0374 14.6859C52.1797 14.2649 52.027 13.8005 51.6627 13.546L47.2412 10.4571C46.4393 9.89686 46.8357 8.63729 47.8138 8.63729H53.3637C53.7926 8.63729 54.1737 8.36376 54.3111 7.95742L56.0526 2.80357Z" fill="#FFD200"/>
</svg>
