<svg width="800" height="382" viewBox="0 0 800 382" fill="none" xmlns="http://www.w3.org/2000/svg">
<g filter="url(#filter0_dd_1_5752)">
<g clip-path="url(#clip0_1_5752)">
<path d="M40 68C40 59.1634 47.1634 52 56 52H664C672.837 52 680 59.1634 680 68V258C680 266.837 672.837 274 664 274H56C47.1634 274 40 266.837 40 258V68Z" fill="white"/>
<rect x="40" y="52" width="640" height="8" fill="#34A853"/>
<path d="M205.5 168.302C205.5 164.24 205.135 160.333 204.458 156.583H150.5V178.771H181.333C179.979 185.906 175.917 191.948 169.823 196.01V210.438H188.417C199.25 200.438 205.5 185.75 205.5 168.302Z" fill="#4285F4"/>
<path d="M150.5 224.292C165.969 224.292 178.938 219.188 188.417 210.438L169.823 196.01C164.719 199.448 158.208 201.531 150.5 201.531C135.604 201.531 122.948 191.479 118.417 177.938H99.3542V192.729C108.781 211.427 128.104 224.292 150.5 224.292Z" fill="#34A853"/>
<path d="M118.417 177.885C117.271 174.448 116.594 170.802 116.594 167C116.594 163.198 117.271 159.552 118.417 156.115V141.323H99.3541C95.4478 149.031 93.2083 157.729 93.2083 167C93.2083 176.271 95.4478 184.969 99.3541 192.677L114.198 181.115L118.417 177.885Z" fill="#FBBC05"/>
<path d="M150.5 132.521C158.938 132.521 166.438 135.438 172.427 141.063L188.833 124.656C178.886 115.385 165.969 109.708 150.5 109.708C128.104 109.708 108.781 122.573 99.3542 141.323L118.417 156.115C122.948 142.573 135.604 132.521 150.5 132.521Z" fill="#EA4335"/>
<path d="M251.053 121.384C249.346 121.384 247.768 121.075 246.317 120.456C244.866 119.837 243.597 118.973 242.509 117.864C241.421 116.755 240.568 115.453 239.949 113.96C239.352 112.467 239.053 110.835 239.053 109.064C239.053 107.293 239.341 105.661 239.917 104.168C240.514 102.653 241.346 101.352 242.413 100.264C243.501 99.1547 244.77 98.3013 246.221 97.704C247.672 97.0853 249.25 96.776 250.957 96.776C252.664 96.776 254.189 97.064 255.533 97.64C256.898 98.216 258.05 98.984 258.989 99.944C259.928 100.883 260.6 101.917 261.005 103.048L257.133 104.904C256.685 103.667 255.928 102.664 254.861 101.896C253.794 101.128 252.493 100.744 250.957 100.744C249.464 100.744 248.141 101.096 246.989 101.8C245.858 102.504 244.973 103.475 244.333 104.712C243.714 105.949 243.405 107.4 243.405 109.064C243.405 110.728 243.725 112.189 244.365 113.448C245.026 114.685 245.933 115.656 247.085 116.36C248.237 117.064 249.56 117.416 251.053 117.416C252.269 117.416 253.389 117.181 254.413 116.712C255.437 116.221 256.258 115.539 256.877 114.664C257.496 113.768 257.805 112.712 257.805 111.496V109.672L259.789 111.4H250.957V107.72H262.157V110.12C262.157 111.955 261.848 113.576 261.229 114.984C260.61 116.392 259.768 117.576 258.701 118.536C257.656 119.475 256.472 120.189 255.149 120.68C253.826 121.149 252.461 121.384 251.053 121.384ZM273.761 121.384C272.054 121.384 270.497 120.989 269.089 120.2C267.702 119.411 266.593 118.333 265.761 116.968C264.95 115.603 264.545 114.045 264.545 112.296C264.545 110.547 264.95 108.989 265.761 107.624C266.593 106.259 267.702 105.181 269.089 104.392C270.476 103.603 272.033 103.208 273.761 103.208C275.468 103.208 277.014 103.603 278.401 104.392C279.788 105.181 280.886 106.259 281.697 107.624C282.529 108.968 282.945 110.525 282.945 112.296C282.945 114.045 282.529 115.603 281.697 116.968C280.865 118.333 279.756 119.411 278.369 120.2C276.982 120.989 275.446 121.384 273.761 121.384ZM273.761 117.544C274.7 117.544 275.521 117.32 276.225 116.872C276.95 116.424 277.516 115.805 277.921 115.016C278.348 114.205 278.561 113.299 278.561 112.296C278.561 111.272 278.348 110.376 277.921 109.608C277.516 108.819 276.95 108.2 276.225 107.752C275.521 107.283 274.7 107.048 273.761 107.048C272.801 107.048 271.958 107.283 271.233 107.752C270.508 108.2 269.932 108.819 269.505 109.608C269.1 110.376 268.897 111.272 268.897 112.296C268.897 113.299 269.1 114.205 269.505 115.016C269.932 115.805 270.508 116.424 271.233 116.872C271.958 117.32 272.801 117.544 273.761 117.544ZM294.636 121.384C292.929 121.384 291.372 120.989 289.964 120.2C288.577 119.411 287.468 118.333 286.636 116.968C285.825 115.603 285.42 114.045 285.42 112.296C285.42 110.547 285.825 108.989 286.636 107.624C287.468 106.259 288.577 105.181 289.964 104.392C291.351 103.603 292.908 103.208 294.636 103.208C296.343 103.208 297.889 103.603 299.276 104.392C300.663 105.181 301.761 106.259 302.572 107.624C303.404 108.968 303.82 110.525 303.82 112.296C303.82 114.045 303.404 115.603 302.572 116.968C301.74 118.333 300.631 119.411 299.244 120.2C297.857 120.989 296.321 121.384 294.636 121.384ZM294.636 117.544C295.575 117.544 296.396 117.32 297.1 116.872C297.825 116.424 298.391 115.805 298.796 115.016C299.223 114.205 299.436 113.299 299.436 112.296C299.436 111.272 299.223 110.376 298.796 109.608C298.391 108.819 297.825 108.2 297.1 107.752C296.396 107.283 295.575 107.048 294.636 107.048C293.676 107.048 292.833 107.283 292.108 107.752C291.383 108.2 290.807 108.819 290.38 109.608C289.975 110.376 289.772 111.272 289.772 112.296C289.772 113.299 289.975 114.205 290.38 115.016C290.807 115.805 291.383 116.424 292.108 116.872C292.833 117.32 293.676 117.544 294.636 117.544ZM315.447 128.04C314.146 128.04 312.94 127.827 311.831 127.4C310.722 126.973 309.762 126.376 308.951 125.608C308.162 124.861 307.586 123.976 307.223 122.952L311.127 121.48C311.383 122.291 311.884 122.941 312.631 123.432C313.399 123.944 314.338 124.2 315.447 124.2C316.3 124.2 317.047 124.04 317.687 123.72C318.348 123.4 318.86 122.931 319.223 122.312C319.586 121.715 319.767 120.989 319.767 120.136V116.168L320.567 117.128C319.97 118.173 319.17 118.963 318.167 119.496C317.164 120.029 316.023 120.296 314.743 120.296C313.122 120.296 311.671 119.923 310.391 119.176C309.111 118.429 308.108 117.405 307.383 116.104C306.658 114.803 306.295 113.341 306.295 111.72C306.295 110.077 306.658 108.616 307.383 107.336C308.108 106.056 309.1 105.053 310.359 104.328C311.618 103.581 313.047 103.208 314.647 103.208C315.948 103.208 317.09 103.485 318.071 104.04C319.074 104.573 319.906 105.352 320.567 106.376L319.991 107.432V103.592H323.959V120.136C323.959 121.651 323.586 123.005 322.839 124.2C322.114 125.395 321.111 126.333 319.831 127.016C318.572 127.699 317.111 128.04 315.447 128.04ZM315.255 116.424C316.151 116.424 316.93 116.232 317.591 115.848C318.274 115.443 318.807 114.888 319.191 114.184C319.575 113.48 319.767 112.669 319.767 111.752C319.767 110.856 319.564 110.056 319.159 109.352C318.775 108.627 318.242 108.061 317.559 107.656C316.898 107.251 316.13 107.048 315.255 107.048C314.38 107.048 313.591 107.251 312.887 107.656C312.183 108.061 311.628 108.627 311.223 109.352C310.839 110.056 310.647 110.856 310.647 111.752C310.647 112.648 310.839 113.448 311.223 114.152C311.628 114.856 312.172 115.411 312.855 115.816C313.559 116.221 314.359 116.424 315.255 116.424ZM327.874 121V96.776H332.066V121H327.874ZM344.192 121.384C342.4 121.384 340.832 120.979 339.488 120.168C338.144 119.357 337.099 118.259 336.352 116.872C335.606 115.485 335.232 113.949 335.232 112.264C335.232 110.515 335.606 108.968 336.352 107.624C337.12 106.259 338.155 105.181 339.456 104.392C340.779 103.603 342.251 103.208 343.872 103.208C345.238 103.208 346.432 103.432 347.456 103.88C348.502 104.328 349.387 104.947 350.112 105.736C350.838 106.525 351.392 107.432 351.776 108.456C352.16 109.459 352.352 110.547 352.352 111.72C352.352 112.019 352.331 112.328 352.288 112.648C352.267 112.968 352.214 113.245 352.128 113.48H338.688V110.28H349.76L347.776 111.784C347.968 110.803 347.915 109.928 347.616 109.16C347.339 108.392 346.87 107.784 346.208 107.336C345.568 106.888 344.79 106.664 343.872 106.664C342.998 106.664 342.219 106.888 341.536 107.336C340.854 107.763 340.331 108.403 339.968 109.256C339.627 110.088 339.499 111.101 339.584 112.296C339.499 113.363 339.638 114.312 340 115.144C340.384 115.955 340.939 116.584 341.664 117.032C342.411 117.48 343.264 117.704 344.224 117.704C345.184 117.704 345.995 117.501 346.656 117.096C347.339 116.691 347.872 116.147 348.256 115.464L351.648 117.128C351.307 117.96 350.774 118.696 350.048 119.336C349.323 119.976 348.459 120.477 347.456 120.84C346.475 121.203 345.387 121.384 344.192 121.384ZM361.57 121V97.16H371.618C373.196 97.16 374.54 97.4373 375.65 97.992C376.78 98.5253 377.644 99.2933 378.242 100.296C378.86 101.277 379.17 102.472 379.17 103.88C379.17 104.968 378.871 105.992 378.274 106.952C377.698 107.891 376.77 108.669 375.49 109.288V107.272C376.663 107.72 377.591 108.275 378.274 108.936C378.956 109.597 379.436 110.333 379.714 111.144C379.991 111.955 380.13 112.808 380.13 113.704C380.13 115.987 379.372 117.779 377.858 119.08C376.364 120.36 374.284 121 371.618 121H361.57ZM365.922 117.16H372.066C373.196 117.16 374.092 116.851 374.754 116.232C375.436 115.592 375.778 114.749 375.778 113.704C375.778 112.659 375.436 111.816 374.754 111.176C374.092 110.536 373.196 110.216 372.066 110.216H365.922V117.16ZM365.922 106.408H371.842C372.738 106.408 373.452 106.152 373.986 105.64C374.519 105.107 374.786 104.424 374.786 103.592C374.786 102.76 374.519 102.099 373.986 101.608C373.452 101.117 372.738 100.872 371.842 100.872H365.922V106.408ZM391.599 121.384C389.807 121.384 388.239 120.979 386.895 120.168C385.551 119.357 384.505 118.259 383.759 116.872C383.012 115.485 382.639 113.949 382.639 112.264C382.639 110.515 383.012 108.968 383.759 107.624C384.527 106.259 385.561 105.181 386.863 104.392C388.185 103.603 389.657 103.208 391.279 103.208C392.644 103.208 393.839 103.432 394.863 103.88C395.908 104.328 396.793 104.947 397.519 105.736C398.244 106.525 398.799 107.432 399.183 108.456C399.567 109.459 399.759 110.547 399.759 111.72C399.759 112.019 399.737 112.328 399.695 112.648C399.673 112.968 399.62 113.245 399.535 113.48H386.095V110.28H397.167L395.183 111.784C395.375 110.803 395.321 109.928 395.023 109.16C394.745 108.392 394.276 107.784 393.615 107.336C392.975 106.888 392.196 106.664 391.279 106.664C390.404 106.664 389.625 106.888 388.943 107.336C388.26 107.763 387.737 108.403 387.375 109.256C387.033 110.088 386.905 111.101 386.991 112.296C386.905 113.363 387.044 114.312 387.407 115.144C387.791 115.955 388.345 116.584 389.071 117.032C389.817 117.48 390.671 117.704 391.631 117.704C392.591 117.704 393.401 117.501 394.063 117.096C394.745 116.691 395.279 116.147 395.663 115.464L399.055 117.128C398.713 117.96 398.18 118.696 397.455 119.336C396.729 119.976 395.865 120.477 394.863 120.84C393.881 121.203 392.793 121.384 391.599 121.384ZM407.32 121L401.336 103.592H405.752L410.136 116.808L408.6 116.776L413.272 103.592H416.984L421.624 116.776L420.088 116.808L424.472 103.592H428.888L422.904 121H419.16L414.424 107.208H415.832L411.032 121H407.32ZM439.13 121.384C437.338 121.384 435.77 120.979 434.426 120.168C433.082 119.357 432.037 118.259 431.29 116.872C430.543 115.485 430.17 113.949 430.17 112.264C430.17 110.515 430.543 108.968 431.29 107.624C432.058 106.259 433.093 105.181 434.394 104.392C435.717 103.603 437.189 103.208 438.81 103.208C440.175 103.208 441.37 103.432 442.394 103.88C443.439 104.328 444.325 104.947 445.05 105.736C445.775 106.525 446.33 107.432 446.714 108.456C447.098 109.459 447.29 110.547 447.29 111.72C447.29 112.019 447.269 112.328 447.226 112.648C447.205 112.968 447.151 113.245 447.066 113.48H433.626V110.28H444.698L442.714 111.784C442.906 110.803 442.853 109.928 442.554 109.16C442.277 108.392 441.807 107.784 441.146 107.336C440.506 106.888 439.727 106.664 438.81 106.664C437.935 106.664 437.157 106.888 436.474 107.336C435.791 107.763 435.269 108.403 434.906 109.256C434.565 110.088 434.437 111.101 434.522 112.296C434.437 113.363 434.575 114.312 434.938 115.144C435.322 115.955 435.877 116.584 436.602 117.032C437.349 117.48 438.202 117.704 439.162 117.704C440.122 117.704 440.933 117.501 441.594 117.096C442.277 116.691 442.81 116.147 443.194 115.464L446.586 117.128C446.245 117.96 445.711 118.696 444.986 119.336C444.261 119.976 443.397 120.477 442.394 120.84C441.413 121.203 440.325 121.384 439.13 121.384ZM450.468 121V103.592H454.404V107.464L454.084 106.888C454.489 105.587 455.118 104.68 455.972 104.168C456.846 103.656 457.892 103.4 459.108 103.4H460.132V107.112H458.628C457.433 107.112 456.473 107.485 455.748 108.232C455.022 108.957 454.66 109.981 454.66 111.304V121H450.468ZM470.841 121.192C468.878 121.192 467.353 120.659 466.265 119.592C465.198 118.504 464.665 116.979 464.665 115.016V107.336H461.657V103.592H461.977C462.83 103.592 463.492 103.368 463.961 102.92C464.43 102.472 464.665 101.821 464.665 100.968V99.624H468.857V103.592H472.857V107.336H468.857V114.792C468.857 115.368 468.953 115.859 469.145 116.264C469.358 116.669 469.678 116.979 470.105 117.192C470.553 117.405 471.118 117.512 471.801 117.512C471.95 117.512 472.121 117.501 472.313 117.48C472.526 117.459 472.729 117.437 472.921 117.416V121C472.622 121.043 472.281 121.085 471.897 121.128C471.513 121.171 471.161 121.192 470.841 121.192ZM482.332 121.384C480.988 121.384 479.815 121.085 478.812 120.488C477.831 119.891 477.073 119.059 476.54 117.992C476.028 116.925 475.772 115.677 475.772 114.248V103.592H479.964V113.896C479.964 114.621 480.103 115.261 480.38 115.816C480.679 116.349 481.095 116.776 481.628 117.096C482.183 117.395 482.801 117.544 483.484 117.544C484.167 117.544 484.775 117.395 485.308 117.096C485.841 116.776 486.257 116.339 486.556 115.784C486.855 115.229 487.004 114.568 487.004 113.8V103.592H491.196V121H487.228V117.576L487.58 118.184C487.175 119.251 486.503 120.051 485.564 120.584C484.647 121.117 483.569 121.384 482.332 121.384ZM495.093 121V103.592H499.029V107.016L498.709 106.408C499.114 105.363 499.775 104.573 500.693 104.04C501.631 103.485 502.719 103.208 503.957 103.208C505.237 103.208 506.367 103.485 507.349 104.04C508.351 104.595 509.13 105.373 509.685 106.376C510.239 107.357 510.517 108.499 510.517 109.8V121H506.325V110.792C506.325 110.024 506.175 109.363 505.877 108.808C505.578 108.253 505.162 107.827 504.629 107.528C504.117 107.208 503.509 107.048 502.805 107.048C502.122 107.048 501.514 107.208 500.981 107.528C500.447 107.827 500.031 108.253 499.733 108.808C499.434 109.363 499.285 110.024 499.285 110.792V121H495.093ZM522.509 128.04C521.208 128.04 520.003 127.827 518.893 127.4C517.784 126.973 516.824 126.376 516.013 125.608C515.224 124.861 514.648 123.976 514.285 122.952L518.189 121.48C518.445 122.291 518.947 122.941 519.693 123.432C520.461 123.944 521.4 124.2 522.509 124.2C523.363 124.2 524.109 124.04 524.749 123.72C525.411 123.4 525.923 122.931 526.285 122.312C526.648 121.715 526.829 120.989 526.829 120.136V116.168L527.629 117.128C527.032 118.173 526.232 118.963 525.229 119.496C524.227 120.029 523.085 120.296 521.805 120.296C520.184 120.296 518.733 119.923 517.453 119.176C516.173 118.429 515.171 117.405 514.445 116.104C513.72 114.803 513.357 113.341 513.357 111.72C513.357 110.077 513.72 108.616 514.445 107.336C515.171 106.056 516.163 105.053 517.421 104.328C518.68 103.581 520.109 103.208 521.709 103.208C523.011 103.208 524.152 103.485 525.133 104.04C526.136 104.573 526.968 105.352 527.629 106.376L527.053 107.432V103.592H531.021V120.136C531.021 121.651 530.648 123.005 529.901 124.2C529.176 125.395 528.173 126.333 526.893 127.016C525.635 127.699 524.173 128.04 522.509 128.04ZM522.317 116.424C523.213 116.424 523.992 116.232 524.653 115.848C525.336 115.443 525.869 114.888 526.253 114.184C526.637 113.48 526.829 112.669 526.829 111.752C526.829 110.856 526.627 110.056 526.221 109.352C525.837 108.627 525.304 108.061 524.621 107.656C523.96 107.251 523.192 107.048 522.317 107.048C521.443 107.048 520.653 107.251 519.949 107.656C519.245 108.061 518.691 108.627 518.285 109.352C517.901 110.056 517.709 110.856 517.709 111.752C517.709 112.648 517.901 113.448 518.285 114.152C518.691 114.856 519.235 115.411 519.917 115.816C520.621 116.221 521.421 116.424 522.317 116.424ZM543.192 121.384C541.4 121.384 539.832 120.979 538.488 120.168C537.144 119.357 536.099 118.259 535.352 116.872C534.606 115.485 534.232 113.949 534.232 112.264C534.232 110.515 534.606 108.968 535.352 107.624C536.12 106.259 537.155 105.181 538.456 104.392C539.779 103.603 541.251 103.208 542.872 103.208C544.238 103.208 545.432 103.432 546.456 103.88C547.502 104.328 548.387 104.947 549.112 105.736C549.838 106.525 550.392 107.432 550.776 108.456C551.16 109.459 551.352 110.547 551.352 111.72C551.352 112.019 551.331 112.328 551.288 112.648C551.267 112.968 551.214 113.245 551.128 113.48H537.688V110.28H548.76L546.776 111.784C546.968 110.803 546.915 109.928 546.616 109.16C546.339 108.392 545.87 107.784 545.208 107.336C544.568 106.888 543.79 106.664 542.872 106.664C541.998 106.664 541.219 106.888 540.536 107.336C539.854 107.763 539.331 108.403 538.968 109.256C538.627 110.088 538.499 111.101 538.584 112.296C538.499 113.363 538.638 114.312 539 115.144C539.384 115.955 539.939 116.584 540.664 117.032C541.411 117.48 542.264 117.704 543.224 117.704C544.184 117.704 544.995 117.501 545.656 117.096C546.339 116.691 546.872 116.147 547.256 115.464L550.648 117.128C550.307 117.96 549.774 118.696 549.048 119.336C548.323 119.976 547.459 120.477 546.456 120.84C545.475 121.203 544.387 121.384 543.192 121.384ZM554.53 121V103.592H558.466V107.016L558.146 106.408C558.551 105.363 559.213 104.573 560.13 104.04C561.069 103.485 562.157 103.208 563.394 103.208C564.674 103.208 565.805 103.485 566.786 104.04C567.789 104.595 568.567 105.373 569.122 106.376C569.677 107.357 569.954 108.499 569.954 109.8V121H565.762V110.792C565.762 110.024 565.613 109.363 565.314 108.808C565.015 108.253 564.599 107.827 564.066 107.528C563.554 107.208 562.946 107.048 562.242 107.048C561.559 107.048 560.951 107.208 560.418 107.528C559.885 107.827 559.469 108.253 559.17 108.808C558.871 109.363 558.722 110.024 558.722 110.792V121H554.53Z" fill="#6A6A6A"/>
<path d="M251.316 188.576C249.428 188.576 247.604 188.224 245.844 187.52C244.084 186.784 242.58 185.76 241.332 184.448C240.084 183.104 239.268 181.504 238.884 179.648L245.46 177.44C245.94 178.976 246.708 180.096 247.764 180.8C248.82 181.504 250.004 181.856 251.316 181.856C252.436 181.856 253.412 181.632 254.244 181.184C255.076 180.704 255.716 180.048 256.164 179.216C256.644 178.352 256.884 177.36 256.884 176.24C256.884 175.12 256.644 174.144 256.164 173.312C255.716 172.48 255.076 171.84 254.244 171.392C253.412 170.912 252.436 170.672 251.316 170.672C250.164 170.672 249.14 170.928 248.244 171.44C247.348 171.92 246.692 172.672 246.276 173.696L240.18 172.256L243.06 152.24H263.028V158.48H246.084L248.868 155.12L246.9 170L244.884 168.224C245.684 166.912 246.692 165.952 247.908 165.344C249.156 164.736 250.756 164.432 252.708 164.432C255.108 164.432 257.172 164.944 258.9 165.968C260.628 166.96 261.956 168.336 262.884 170.096C263.844 171.856 264.324 173.904 264.324 176.24C264.324 178.576 263.748 180.688 262.596 182.576C261.476 184.432 259.94 185.904 257.988 186.992C256.036 188.048 253.812 188.576 251.316 188.576ZM272.833 188V180.8H280.033V188H272.833ZM303.034 188.576C300.186 188.576 297.674 187.808 295.498 186.272C293.354 184.736 291.674 182.576 290.458 179.792C289.242 177.008 288.634 173.776 288.634 170.096C288.634 166.384 289.226 163.152 290.41 160.4C291.626 157.648 293.306 155.504 295.45 153.968C297.626 152.432 300.138 151.664 302.986 151.664C305.898 151.664 308.426 152.432 310.57 153.968C312.746 155.504 314.426 157.664 315.61 160.448C316.826 163.2 317.434 166.416 317.434 170.096C317.434 173.776 316.826 177.008 315.61 179.792C314.426 182.544 312.746 184.704 310.57 186.272C308.426 187.808 305.914 188.576 303.034 188.576ZM303.082 181.856C304.554 181.856 305.802 181.392 306.826 180.464C307.85 179.536 308.634 178.192 309.178 176.432C309.722 174.672 309.994 172.56 309.994 170.096C309.994 167.632 309.722 165.536 309.178 163.808C308.634 162.048 307.834 160.704 306.778 159.776C305.754 158.848 304.49 158.384 302.986 158.384C301.514 158.384 300.266 158.848 299.242 159.776C298.218 160.704 297.434 162.048 296.89 163.808C296.346 165.536 296.074 167.632 296.074 170.096C296.074 172.528 296.346 174.624 296.89 176.384C297.434 178.144 298.218 179.504 299.242 180.464C300.298 181.392 301.578 181.856 303.082 181.856Z" fill="#FEA500"/>
<path d="M378.209 143.605C378.944 142.125 381.056 142.125 381.791 143.605L387.797 155.693C388.088 156.279 388.648 156.686 389.295 156.781L402.648 158.758C404.283 159 404.935 161.008 403.755 162.165L394.114 171.612C393.647 172.07 393.433 172.728 393.542 173.374L395.788 186.683C396.063 188.313 394.355 189.554 392.89 188.789L380.926 182.54C380.346 182.237 379.654 182.237 379.074 182.54L367.11 188.789C365.645 189.554 363.937 188.313 364.212 186.683L366.458 173.374C366.567 172.728 366.353 172.07 365.886 171.612L356.245 162.165C355.065 161.008 355.717 159 357.352 158.758L370.705 156.781C371.352 156.686 371.912 156.279 372.203 155.693L378.209 143.605Z" fill="#FEA500"/>
<path d="M434.209 143.605C434.944 142.125 437.056 142.125 437.791 143.605L443.797 155.693C444.088 156.279 444.648 156.686 445.295 156.781L458.648 158.758C460.283 159 460.935 161.008 459.755 162.165L450.114 171.612C449.647 172.07 449.433 172.728 449.542 173.374L451.788 186.683C452.063 188.313 450.355 189.554 448.89 188.789L436.926 182.54C436.346 182.237 435.654 182.237 435.074 182.54L423.11 188.789C421.645 189.554 419.937 188.313 420.212 186.683L422.458 173.374C422.567 172.728 422.353 172.07 421.886 171.612L412.245 162.165C411.065 161.008 411.717 159 413.352 158.758L426.705 156.781C427.352 156.686 427.912 156.279 428.203 155.693L434.209 143.605Z" fill="#FEA500"/>
<path d="M490.209 143.605C490.944 142.125 493.056 142.125 493.791 143.605L499.797 155.693C500.088 156.279 500.648 156.686 501.295 156.781L514.648 158.758C516.283 159 516.935 161.008 515.755 162.165L506.114 171.612C505.647 172.07 505.433 172.728 505.542 173.374L507.788 186.683C508.063 188.313 506.355 189.554 504.89 188.789L492.926 182.54C492.346 182.237 491.654 182.237 491.074 182.54L479.11 188.789C477.645 189.554 475.937 188.313 476.212 186.683L478.458 173.374C478.567 172.728 478.353 172.07 477.886 171.612L468.245 162.165C467.065 161.008 467.717 159 469.352 158.758L482.705 156.781C483.352 156.686 483.912 156.279 484.203 155.693L490.209 143.605Z" fill="#FEA500"/>
<path d="M546.209 143.605C546.944 142.125 549.056 142.125 549.791 143.605L555.797 155.693C556.088 156.279 556.648 156.686 557.295 156.781L570.648 158.758C572.283 159 572.935 161.008 571.755 162.165L562.114 171.612C561.647 172.07 561.433 172.728 561.542 173.374L563.788 186.683C564.063 188.313 562.355 189.554 560.89 188.789L548.926 182.54C548.346 182.237 547.654 182.237 547.074 182.54L535.11 188.789C533.645 189.554 531.937 188.313 532.212 186.683L534.458 173.374C534.567 172.728 534.353 172.07 533.886 171.612L524.245 162.165C523.065 161.008 523.717 159 525.352 158.758L538.705 156.781C539.352 156.686 539.912 156.279 540.203 155.693L546.209 143.605Z" fill="#FEA500"/>
<path d="M602.209 143.605C602.944 142.125 605.056 142.125 605.791 143.605L611.797 155.693C612.088 156.279 612.648 156.686 613.295 156.781L626.648 158.758C628.283 159 628.935 161.008 627.755 162.165L618.114 171.612C617.647 172.07 617.433 172.728 617.542 173.374L619.788 186.683C620.063 188.313 618.355 189.554 616.89 188.789L604.926 182.54C604.346 182.237 603.654 182.237 603.074 182.54L591.11 188.789C589.645 189.554 587.937 188.313 588.212 186.683L590.458 173.374C590.567 172.728 590.353 172.07 589.886 171.612L580.245 162.165C579.065 161.008 579.717 159 581.352 158.758L594.705 156.781C595.352 156.686 595.912 156.279 596.203 155.693L602.209 143.605Z" fill="#FEA500"/>
<path d="M245.417 237.288C244.281 237.288 243.249 237.072 242.321 236.64C241.393 236.208 240.609 235.632 239.969 234.912C239.329 234.176 238.873 233.368 238.601 232.488L240.329 231.84C240.745 233.056 241.393 233.984 242.273 234.624C243.153 235.248 244.201 235.56 245.417 235.56C246.185 235.56 246.857 235.44 247.433 235.2C248.025 234.944 248.481 234.592 248.801 234.144C249.121 233.696 249.281 233.176 249.281 232.584C249.281 231.704 249.041 231.024 248.561 230.544C248.081 230.064 247.393 229.696 246.497 229.44L243.281 228.48C242.017 228.112 241.041 227.496 240.353 226.632C239.681 225.768 239.345 224.784 239.345 223.68C239.345 222.736 239.577 221.904 240.041 221.184C240.505 220.448 241.137 219.872 241.937 219.456C242.753 219.04 243.673 218.832 244.697 218.832C245.769 218.832 246.729 219.032 247.577 219.432C248.441 219.816 249.169 220.328 249.761 220.968C250.353 221.608 250.777 222.32 251.033 223.104L249.353 223.776C248.969 222.72 248.369 221.92 247.553 221.376C246.753 220.832 245.809 220.56 244.721 220.56C244.033 220.56 243.425 220.68 242.897 220.92C242.385 221.16 241.985 221.504 241.697 221.952C241.409 222.4 241.265 222.928 241.265 223.536C241.265 224.272 241.497 224.936 241.961 225.528C242.425 226.104 243.137 226.536 244.097 226.824L246.929 227.664C248.337 228.08 249.401 228.68 250.121 229.464C250.841 230.248 251.201 231.232 251.201 232.416C251.201 233.376 250.953 234.224 250.457 234.96C249.977 235.68 249.297 236.248 248.417 236.664C247.553 237.08 246.553 237.288 245.417 237.288ZM260.525 237.288C259.261 237.288 258.149 236.992 257.189 236.4C256.229 235.808 255.477 235.008 254.933 234C254.389 232.976 254.117 231.824 254.117 230.544C254.117 229.264 254.389 228.12 254.933 227.112C255.477 226.104 256.229 225.312 257.189 224.736C258.149 224.144 259.261 223.848 260.525 223.848C261.325 223.848 262.077 223.992 262.781 224.28C263.485 224.568 264.109 224.96 264.653 225.456C265.197 225.936 265.605 226.496 265.877 227.136L264.245 227.976C263.925 227.288 263.437 226.728 262.781 226.296C262.125 225.864 261.373 225.648 260.525 225.648C259.677 225.648 258.909 225.864 258.221 226.296C257.549 226.712 257.013 227.296 256.613 228.048C256.229 228.784 256.037 229.624 256.037 230.568C256.037 231.496 256.229 232.336 256.613 233.088C257.013 233.824 257.549 234.408 258.221 234.84C258.909 235.272 259.677 235.488 260.525 235.488C261.373 235.488 262.117 235.272 262.757 234.84C263.413 234.408 263.909 233.832 264.245 233.112L265.877 234C265.605 234.624 265.197 235.184 264.653 235.68C264.109 236.176 263.485 236.568 262.781 236.856C262.077 237.144 261.325 237.288 260.525 237.288ZM269.036 237V218.832H270.836V226.632L270.428 226.536C270.748 225.704 271.268 225.048 271.988 224.568C272.724 224.088 273.572 223.848 274.532 223.848C275.444 223.848 276.26 224.056 276.98 224.472C277.716 224.888 278.292 225.464 278.708 226.2C279.14 226.92 279.356 227.736 279.356 228.648V237H277.556V229.344C277.556 228.56 277.412 227.896 277.124 227.352C276.836 226.808 276.436 226.392 275.924 226.104C275.428 225.8 274.86 225.648 274.22 225.648C273.58 225.648 273.004 225.8 272.492 226.104C271.98 226.392 271.572 226.816 271.268 227.376C270.98 227.92 270.836 228.576 270.836 229.344V237H269.036ZM286.513 237.288C285.697 237.288 284.969 237.136 284.329 236.832C283.689 236.512 283.185 236.08 282.817 235.536C282.449 234.992 282.265 234.368 282.265 233.664C282.265 232.992 282.409 232.384 282.697 231.84C282.985 231.28 283.433 230.808 284.041 230.424C284.649 230.04 285.425 229.768 286.369 229.608L291.409 228.768V230.4L286.801 231.168C285.873 231.328 285.201 231.624 284.785 232.056C284.385 232.488 284.185 233 284.185 233.592C284.185 234.168 284.409 234.656 284.857 235.056C285.321 235.456 285.913 235.656 286.633 235.656C287.513 235.656 288.281 235.472 288.937 235.104C289.593 234.72 290.105 234.208 290.473 233.568C290.841 232.928 291.025 232.216 291.025 231.432V228.168C291.025 227.4 290.745 226.776 290.185 226.296C289.625 225.816 288.897 225.576 288.001 225.576C287.217 225.576 286.529 225.776 285.937 226.176C285.345 226.56 284.905 227.064 284.617 227.688L282.985 226.8C283.225 226.256 283.601 225.76 284.113 225.312C284.641 224.864 285.241 224.512 285.913 224.256C286.585 223.984 287.281 223.848 288.001 223.848C288.945 223.848 289.777 224.032 290.497 224.4C291.233 224.768 291.801 225.28 292.201 225.936C292.617 226.576 292.825 227.32 292.825 228.168V237H291.025V234.432L291.289 234.696C291.065 235.176 290.713 235.616 290.233 236.016C289.769 236.4 289.217 236.712 288.577 236.952C287.953 237.176 287.265 237.288 286.513 237.288ZM301.088 237.288C300.192 237.288 299.376 237.08 298.64 236.664C297.904 236.232 297.32 235.64 296.888 234.888C296.472 234.12 296.264 233.24 296.264 232.248V224.136H298.064V232.032C298.064 232.72 298.2 233.328 298.472 233.856C298.76 234.368 299.152 234.768 299.648 235.056C300.16 235.344 300.744 235.488 301.4 235.488C302.056 235.488 302.64 235.344 303.152 235.056C303.664 234.752 304.064 234.328 304.352 233.784C304.64 233.224 304.784 232.56 304.784 231.792V224.136H306.584V237H304.784V234.504L305.192 234.6C304.888 235.432 304.368 236.088 303.632 236.568C302.896 237.048 302.048 237.288 301.088 237.288ZM320.172 237.288C318.972 237.288 317.892 237 316.932 236.424C315.972 235.832 315.212 235.032 314.652 234.024C314.108 233 313.836 231.848 313.836 230.568C313.836 229.272 314.108 228.12 314.652 227.112C315.212 226.104 315.964 225.312 316.908 224.736C317.868 224.144 318.956 223.848 320.172 223.848C321.276 223.848 322.26 224.088 323.124 224.568C323.988 225.048 324.668 225.696 325.164 226.512L324.876 227.016V218.832H326.676V237H324.876V234.12L325.164 234.384C324.716 235.312 324.044 236.032 323.148 236.544C322.268 237.04 321.276 237.288 320.172 237.288ZM320.268 235.488C321.132 235.488 321.908 235.272 322.596 234.84C323.3 234.408 323.852 233.824 324.252 233.088C324.668 232.336 324.876 231.496 324.876 230.568C324.876 229.64 324.668 228.808 324.252 228.072C323.852 227.32 323.3 226.728 322.596 226.296C321.908 225.864 321.132 225.648 320.268 225.648C319.42 225.648 318.652 225.864 317.964 226.296C317.276 226.728 316.732 227.312 316.332 228.048C315.948 228.784 315.756 229.624 315.756 230.568C315.756 231.496 315.948 232.336 316.332 233.088C316.732 233.824 317.268 234.408 317.94 234.84C318.628 235.272 319.404 235.488 320.268 235.488ZM330.371 237V224.136H332.171V237H330.371ZM330.371 221.76V219.12H332.171V221.76H330.371ZM335.856 237V224.136H337.656V226.248L337.416 225.936C337.72 225.328 338.176 224.848 338.784 224.496C339.408 224.144 340.16 223.968 341.04 223.968H341.856V225.768H340.728C339.8 225.768 339.056 226.056 338.496 226.632C337.936 227.208 337.656 228.024 337.656 229.08V237H335.856ZM351.763 237.288C350.947 237.288 350.219 237.136 349.579 236.832C348.939 236.512 348.435 236.08 348.067 235.536C347.699 234.992 347.515 234.368 347.515 233.664C347.515 232.992 347.659 232.384 347.947 231.84C348.235 231.28 348.683 230.808 349.291 230.424C349.899 230.04 350.675 229.768 351.619 229.608L356.659 228.768V230.4L352.051 231.168C351.123 231.328 350.451 231.624 350.035 232.056C349.635 232.488 349.435 233 349.435 233.592C349.435 234.168 349.659 234.656 350.107 235.056C350.571 235.456 351.163 235.656 351.883 235.656C352.763 235.656 353.531 235.472 354.187 235.104C354.843 234.72 355.355 234.208 355.723 233.568C356.091 232.928 356.275 232.216 356.275 231.432V228.168C356.275 227.4 355.995 226.776 355.435 226.296C354.875 225.816 354.147 225.576 353.251 225.576C352.467 225.576 351.779 225.776 351.187 226.176C350.595 226.56 350.155 227.064 349.867 227.688L348.235 226.8C348.475 226.256 348.851 225.76 349.363 225.312C349.891 224.864 350.491 224.512 351.163 224.256C351.835 223.984 352.531 223.848 353.251 223.848C354.195 223.848 355.027 224.032 355.747 224.4C356.483 224.768 357.051 225.28 357.451 225.936C357.867 226.576 358.075 227.32 358.075 228.168V237H356.275V234.432L356.539 234.696C356.315 235.176 355.963 235.616 355.483 236.016C355.019 236.4 354.467 236.712 353.827 236.952C353.203 237.176 352.515 237.288 351.763 237.288ZM361.778 237V218.832H363.578V237H361.778ZM367.262 237V218.832H369.062V237H367.262ZM378.602 237.288C377.402 237.288 376.314 237 375.338 236.424C374.378 235.832 373.618 235.024 373.058 234C372.498 232.976 372.218 231.816 372.218 230.52C372.218 229.224 372.49 228.08 373.034 227.088C373.578 226.08 374.314 225.288 375.242 224.712C376.186 224.136 377.242 223.848 378.41 223.848C379.338 223.848 380.162 224.024 380.882 224.376C381.618 224.712 382.242 225.176 382.754 225.768C383.266 226.344 383.658 227 383.93 227.736C384.202 228.456 384.338 229.2 384.338 229.968C384.338 230.128 384.33 230.312 384.314 230.52C384.298 230.712 384.274 230.912 384.242 231.12H373.37V229.44H383.21L382.346 230.16C382.49 229.28 382.386 228.496 382.034 227.808C381.698 227.104 381.21 226.552 380.57 226.152C379.93 225.736 379.21 225.528 378.41 225.528C377.61 225.528 376.866 225.736 376.178 226.152C375.506 226.568 374.978 227.152 374.594 227.904C374.21 228.64 374.058 229.52 374.138 230.544C374.058 231.568 374.218 232.464 374.618 233.232C375.034 233.984 375.594 234.568 376.298 234.984C377.018 235.4 377.786 235.608 378.602 235.608C379.546 235.608 380.338 235.384 380.978 234.936C381.618 234.488 382.138 233.928 382.538 233.256L384.074 234.072C383.818 234.648 383.426 235.184 382.898 235.68C382.37 236.16 381.738 236.552 381.002 236.856C380.282 237.144 379.482 237.288 378.602 237.288ZM391.854 237V219.12H399.366C400.374 219.12 401.246 219.312 401.982 219.696C402.734 220.064 403.31 220.584 403.71 221.256C404.126 221.928 404.334 222.712 404.334 223.608C404.334 224.536 404.102 225.36 403.638 226.08C403.19 226.784 402.542 227.32 401.694 227.688L401.67 227.112C402.374 227.368 402.974 227.728 403.47 228.192C403.982 228.656 404.374 229.2 404.646 229.824C404.918 230.432 405.054 231.088 405.054 231.792C405.054 233.392 404.542 234.664 403.518 235.608C402.51 236.536 401.134 237 399.39 237H391.854ZM393.774 235.2H399.39C400.526 235.2 401.43 234.904 402.102 234.312C402.79 233.704 403.134 232.872 403.134 231.816C403.134 230.776 402.79 229.952 402.102 229.344C401.43 228.72 400.526 228.408 399.39 228.408H393.774V235.2ZM393.774 226.68H399.222C400.182 226.68 400.95 226.4 401.526 225.84C402.118 225.28 402.414 224.56 402.414 223.68C402.414 222.784 402.118 222.104 401.526 221.64C400.95 221.16 400.182 220.92 399.222 220.92H393.774V226.68ZM414.087 237.288C412.887 237.288 411.799 237 410.823 236.424C409.863 235.832 409.103 235.024 408.543 234C407.983 232.976 407.703 231.816 407.703 230.52C407.703 229.224 407.975 228.08 408.519 227.088C409.063 226.08 409.799 225.288 410.727 224.712C411.671 224.136 412.727 223.848 413.895 223.848C414.823 223.848 415.647 224.024 416.367 224.376C417.103 224.712 417.727 225.176 418.239 225.768C418.751 226.344 419.143 227 419.415 227.736C419.687 228.456 419.823 229.2 419.823 229.968C419.823 230.128 419.815 230.312 419.799 230.52C419.783 230.712 419.759 230.912 419.727 231.12H408.855V229.44H418.695L417.831 230.16C417.975 229.28 417.871 228.496 417.519 227.808C417.183 227.104 416.695 226.552 416.055 226.152C415.415 225.736 414.695 225.528 413.895 225.528C413.095 225.528 412.351 225.736 411.663 226.152C410.991 226.568 410.463 227.152 410.079 227.904C409.695 228.64 409.543 229.52 409.623 230.544C409.543 231.568 409.703 232.464 410.103 233.232C410.519 233.984 411.079 234.568 411.783 234.984C412.503 235.4 413.271 235.608 414.087 235.608C415.031 235.608 415.823 235.384 416.463 234.936C417.103 234.488 417.623 233.928 418.023 233.256L419.559 234.072C419.303 234.648 418.911 235.184 418.383 235.68C417.855 236.16 417.223 236.552 416.487 236.856C415.767 237.144 414.967 237.288 414.087 237.288ZM425.828 237L421.412 224.136H423.452L427.1 235.392H426.38L429.812 224.136H431.612L435.044 235.392H434.324L437.996 224.136H440.012L435.596 237H433.796L430.46 225.984H430.964L427.628 237H425.828ZM447.743 237.288C446.543 237.288 445.455 237 444.479 236.424C443.519 235.832 442.759 235.024 442.199 234C441.639 232.976 441.359 231.816 441.359 230.52C441.359 229.224 441.631 228.08 442.175 227.088C442.719 226.08 443.455 225.288 444.383 224.712C445.327 224.136 446.383 223.848 447.551 223.848C448.479 223.848 449.303 224.024 450.023 224.376C450.759 224.712 451.383 225.176 451.895 225.768C452.407 226.344 452.799 227 453.071 227.736C453.343 228.456 453.479 229.2 453.479 229.968C453.479 230.128 453.471 230.312 453.455 230.52C453.439 230.712 453.415 230.912 453.383 231.12H442.511V229.44H452.351L451.487 230.16C451.631 229.28 451.527 228.496 451.175 227.808C450.839 227.104 450.351 226.552 449.711 226.152C449.071 225.736 448.351 225.528 447.551 225.528C446.751 225.528 446.007 225.736 445.319 226.152C444.647 226.568 444.119 227.152 443.735 227.904C443.351 228.64 443.199 229.52 443.279 230.544C443.199 231.568 443.359 232.464 443.759 233.232C444.175 233.984 444.735 234.568 445.439 234.984C446.159 235.4 446.927 235.608 447.743 235.608C448.687 235.608 449.479 235.384 450.119 234.936C450.759 234.488 451.279 233.928 451.679 233.256L453.215 234.072C452.959 234.648 452.567 235.184 452.039 235.68C451.511 236.16 450.879 236.552 450.143 236.856C449.423 237.144 448.623 237.288 447.743 237.288ZM456.653 237V224.136H458.453V226.248L458.213 225.936C458.517 225.328 458.973 224.848 459.581 224.496C460.205 224.144 460.957 223.968 461.837 223.968H462.653V225.768H461.525C460.597 225.768 459.853 226.056 459.293 226.632C458.733 227.208 458.453 228.024 458.453 229.08V237H456.653ZM469.682 237.144C468.53 237.144 467.642 236.808 467.018 236.136C466.394 235.464 466.082 234.504 466.082 233.256V225.936H463.706V224.136H464.306C464.85 224.136 465.282 223.96 465.602 223.608C465.922 223.24 466.082 222.784 466.082 222.24V221.16H467.882V224.136H470.714V225.936H467.882V233.256C467.882 233.688 467.946 234.072 468.074 234.408C468.202 234.728 468.418 234.984 468.722 235.176C469.042 235.368 469.466 235.464 469.994 235.464C470.122 235.464 470.274 235.456 470.45 235.44C470.626 235.424 470.778 235.408 470.906 235.392V237C470.714 237.048 470.498 237.08 470.258 237.096C470.018 237.128 469.826 237.144 469.682 237.144ZM478.627 237.288C477.731 237.288 476.915 237.08 476.179 236.664C475.443 236.232 474.859 235.64 474.427 234.888C474.011 234.12 473.803 233.24 473.803 232.248V224.136H475.603V232.032C475.603 232.72 475.739 233.328 476.011 233.856C476.299 234.368 476.691 234.768 477.187 235.056C477.699 235.344 478.283 235.488 478.939 235.488C479.595 235.488 480.179 235.344 480.691 235.056C481.203 234.752 481.603 234.328 481.891 233.784C482.179 233.224 482.323 232.56 482.323 231.792V224.136H484.123V237H482.323V234.504L482.731 234.6C482.427 235.432 481.907 236.088 481.171 236.568C480.435 237.048 479.587 237.288 478.627 237.288ZM487.825 237V224.136H489.625V226.632L489.217 226.536C489.537 225.704 490.057 225.048 490.777 224.568C491.513 224.088 492.361 223.848 493.321 223.848C494.233 223.848 495.049 224.056 495.769 224.472C496.505 224.888 497.081 225.464 497.497 226.2C497.929 226.92 498.145 227.736 498.145 228.648V237H496.345V229.344C496.345 228.56 496.201 227.896 495.913 227.352C495.641 226.808 495.249 226.392 494.737 226.104C494.241 225.8 493.665 225.648 493.009 225.648C492.353 225.648 491.769 225.8 491.257 226.104C490.745 226.392 490.345 226.816 490.057 227.376C489.769 227.92 489.625 228.576 489.625 229.344V237H487.825ZM507.678 242.28C506.798 242.28 505.982 242.144 505.23 241.872C504.494 241.6 503.854 241.224 503.31 240.744C502.782 240.28 502.374 239.736 502.086 239.112L503.742 238.224C503.998 238.832 504.454 239.36 505.11 239.808C505.766 240.256 506.606 240.48 507.63 240.48C508.414 240.48 509.134 240.328 509.79 240.024C510.446 239.72 510.974 239.272 511.374 238.68C511.774 238.088 511.974 237.36 511.974 236.496V233.64L512.262 233.904C511.814 234.832 511.15 235.552 510.27 236.064C509.39 236.56 508.43 236.808 507.39 236.808C506.19 236.808 505.11 236.52 504.15 235.944C503.19 235.368 502.43 234.592 501.87 233.616C501.326 232.624 501.054 231.528 501.054 230.328C501.054 229.112 501.326 228.016 501.87 227.04C502.43 226.064 503.182 225.288 504.126 224.712C505.086 224.136 506.174 223.848 507.39 223.848C508.43 223.848 509.374 224.088 510.222 224.568C511.086 225.048 511.766 225.696 512.262 226.512L511.974 227.016V224.136H513.774V236.496C513.774 237.6 513.51 238.584 512.982 239.448C512.47 240.328 511.75 241.016 510.822 241.512C509.91 242.024 508.862 242.28 507.678 242.28ZM507.486 235.008C508.318 235.008 509.07 234.8 509.742 234.384C510.414 233.952 510.95 233.384 511.35 232.68C511.766 231.96 511.974 231.176 511.974 230.328C511.974 229.48 511.766 228.704 511.35 228C510.95 227.28 510.414 226.712 509.742 226.296C509.07 225.864 508.318 225.648 507.486 225.648C506.638 225.648 505.87 225.864 505.182 226.296C504.494 226.712 503.95 227.272 503.55 227.976C503.166 228.68 502.974 229.464 502.974 230.328C502.974 231.176 503.166 231.96 503.55 232.68C503.95 233.384 504.486 233.952 505.158 234.384C505.846 234.8 506.622 235.008 507.486 235.008ZM523.329 237.288C522.129 237.288 521.041 237 520.065 236.424C519.105 235.832 518.345 235.024 517.785 234C517.225 232.976 516.945 231.816 516.945 230.52C516.945 229.224 517.217 228.08 517.761 227.088C518.305 226.08 519.041 225.288 519.969 224.712C520.913 224.136 521.969 223.848 523.137 223.848C524.065 223.848 524.889 224.024 525.609 224.376C526.345 224.712 526.969 225.176 527.481 225.768C527.993 226.344 528.385 227 528.657 227.736C528.929 228.456 529.065 229.2 529.065 229.968C529.065 230.128 529.057 230.312 529.041 230.52C529.025 230.712 529.001 230.912 528.969 231.12H518.097V229.44H527.937L527.073 230.16C527.217 229.28 527.113 228.496 526.761 227.808C526.425 227.104 525.937 226.552 525.297 226.152C524.657 225.736 523.937 225.528 523.137 225.528C522.337 225.528 521.593 225.736 520.905 226.152C520.233 226.568 519.705 227.152 519.321 227.904C518.937 228.64 518.785 229.52 518.865 230.544C518.785 231.568 518.945 232.464 519.345 233.232C519.761 233.984 520.321 234.568 521.025 234.984C521.745 235.4 522.513 235.608 523.329 235.608C524.273 235.608 525.065 235.384 525.705 234.936C526.345 234.488 526.865 233.928 527.265 233.256L528.801 234.072C528.545 234.648 528.153 235.184 527.625 235.68C527.097 236.16 526.465 236.552 525.729 236.856C525.009 237.144 524.209 237.288 523.329 237.288ZM532.239 237V224.136H534.039V226.632L533.631 226.536C533.951 225.704 534.471 225.048 535.191 224.568C535.927 224.088 536.775 223.848 537.735 223.848C538.647 223.848 539.463 224.056 540.183 224.472C540.919 224.888 541.495 225.464 541.911 226.2C542.343 226.92 542.559 227.736 542.559 228.648V237H540.759V229.344C540.759 228.56 540.615 227.896 540.327 227.352C540.055 226.808 539.663 226.392 539.151 226.104C538.655 225.8 538.079 225.648 537.423 225.648C536.767 225.648 536.183 225.8 535.671 226.104C535.159 226.392 534.759 226.816 534.471 227.376C534.183 227.92 534.039 228.576 534.039 229.344V237H532.239ZM553.795 237.288C552.979 237.288 552.251 237.136 551.611 236.832C550.971 236.512 550.467 236.08 550.099 235.536C549.731 234.992 549.547 234.368 549.547 233.664C549.547 232.992 549.691 232.384 549.979 231.84C550.267 231.28 550.715 230.808 551.323 230.424C551.931 230.04 552.707 229.768 553.651 229.608L558.691 228.768V230.4L554.083 231.168C553.155 231.328 552.483 231.624 552.067 232.056C551.667 232.488 551.467 233 551.467 233.592C551.467 234.168 551.691 234.656 552.139 235.056C552.603 235.456 553.195 235.656 553.915 235.656C554.795 235.656 555.563 235.472 556.219 235.104C556.875 234.72 557.387 234.208 557.755 233.568C558.123 232.928 558.307 232.216 558.307 231.432V228.168C558.307 227.4 558.027 226.776 557.467 226.296C556.907 225.816 556.179 225.576 555.283 225.576C554.499 225.576 553.811 225.776 553.219 226.176C552.627 226.56 552.187 227.064 551.899 227.688L550.267 226.8C550.507 226.256 550.883 225.76 551.395 225.312C551.923 224.864 552.523 224.512 553.195 224.256C553.867 223.984 554.563 223.848 555.283 223.848C556.227 223.848 557.059 224.032 557.779 224.4C558.515 224.768 559.083 225.28 559.483 225.936C559.899 226.576 560.107 227.32 560.107 228.168V237H558.307V234.432L558.571 234.696C558.347 235.176 557.995 235.616 557.515 236.016C557.051 236.4 556.499 236.712 555.859 236.952C555.235 237.176 554.547 237.288 553.795 237.288ZM563.809 237V224.136H565.609V226.632L565.201 226.536C565.521 225.704 566.041 225.048 566.761 224.568C567.497 224.088 568.345 223.848 569.305 223.848C570.217 223.848 571.033 224.056 571.753 224.472C572.489 224.888 573.065 225.464 573.481 226.2C573.913 226.92 574.129 227.736 574.129 228.648V237H572.329V229.344C572.329 228.56 572.185 227.896 571.897 227.352C571.625 226.808 571.233 226.392 570.721 226.104C570.225 225.8 569.649 225.648 568.993 225.648C568.337 225.648 567.753 225.8 567.241 226.104C566.729 226.392 566.329 226.816 566.041 227.376C565.753 227.92 565.609 228.576 565.609 229.344V237H563.809Z" fill="#868686"/>
</g>
</g>
<defs>
<filter id="filter0_dd_1_5752" x="0" y="0" width="800" height="382" filterUnits="userSpaceOnUse" color-interpolation-filters="sRGB">
<feFlood flood-opacity="0" result="BackgroundImageFix"/>
<feColorMatrix in="SourceAlpha" type="matrix" values="0 0 0 0 0 0 0 0 0 0 0 0 0 0 0 0 0 0 127 0" result="hardAlpha"/>
<feOffset dx="40" dy="28"/>
<feGaussianBlur stdDeviation="40"/>
<feComposite in2="hardAlpha" operator="out"/>
<feColorMatrix type="matrix" values="0 0 0 0 0 0 0 0 0 0 0 0 0 0 0 0 0 0 0.08 0"/>
<feBlend mode="normal" in2="BackgroundImageFix" result="effect1_dropShadow_1_5752"/>
<feColorMatrix in="SourceAlpha" type="matrix" values="0 0 0 0 0 0 0 0 0 0 0 0 0 0 0 0 0 0 127 0" result="hardAlpha"/>
<feOffset dx="-8" dy="-4"/>
<feGaussianBlur stdDeviation="16"/>
<feComposite in2="hardAlpha" operator="out"/>
<feColorMatrix type="matrix" values="0 0 0 0 0 0 0 0 0 0 0 0 0 0 0 0 0 0 0.08 0"/>
<feBlend mode="normal" in2="effect1_dropShadow_1_5752" result="effect2_dropShadow_1_5752"/>
<feBlend mode="normal" in="SourceGraphic" in2="effect2_dropShadow_1_5752" result="shape"/>
</filter>
<clipPath id="clip0_1_5752">
<path d="M40 68C40 59.1634 47.1634 52 56 52H664C672.837 52 680 59.1634 680 68V258C680 266.837 672.837 274 664 274H56C47.1634 274 40 266.837 40 258V68Z" fill="white"/>
</clipPath>
</defs>
</svg>
