<svg width="379" height="56" viewBox="0 0 379 56" fill="none" xmlns="http://www.w3.org/2000/svg">
<path d="M26.2089 3.60489C26.9443 2.12477 29.0557 2.12478 29.7911 3.60489L35.7971 15.6929C36.0883 16.279 36.6479 16.6856 37.2953 16.7814L50.6477 18.7581C52.2826 19.0001 52.935 21.0081 51.7546 22.1649L42.1142 31.6124C41.6467 32.0705 41.433 32.7283 41.5419 33.3736L43.7881 46.6833C44.0632 48.313 42.355 49.554 40.8901 48.7888L28.926 42.5397C28.3458 42.2366 27.6542 42.2366 27.074 42.5397L15.11 48.7888C13.645 49.554 11.9368 48.313 12.2119 46.6833L14.4581 33.3736C14.567 32.7283 14.3533 32.0705 13.8858 31.6124L4.24539 22.1649C3.06497 21.0081 3.71743 19.0001 5.35235 18.7581L18.7047 16.7814C19.3521 16.6856 19.9117 16.279 20.2029 15.6929L26.2089 3.60489Z" fill="#FEA500"/>
<path d="M82.2089 3.60489C82.9443 2.12477 85.0557 2.12478 85.7911 3.60489L91.7971 15.6929C92.0883 16.279 92.6479 16.6856 93.2953 16.7814L106.648 18.7581C108.283 19.0001 108.935 21.0081 107.755 22.1649L98.1142 31.6124C97.6467 32.0705 97.433 32.7283 97.5419 33.3736L99.7881 46.6833C100.063 48.313 98.355 49.554 96.8901 48.7888L84.926 42.5397C84.3458 42.2366 83.6542 42.2366 83.074 42.5397L71.11 48.7888C69.645 49.554 67.9368 48.313 68.2119 46.6833L70.4581 33.3736C70.567 32.7283 70.3533 32.0705 69.8858 31.6124L60.2454 22.1649C59.065 21.0081 59.7174 19.0001 61.3524 18.7581L74.7047 16.7814C75.3521 16.6856 75.9117 16.279 76.2029 15.6929L82.2089 3.60489Z" fill="#FEA500"/>
<path d="M138.209 3.60489C138.944 2.12477 141.056 2.12478 141.791 3.60489L147.797 15.6929C148.088 16.279 148.648 16.6856 149.295 16.7814L162.648 18.7581C164.283 19.0001 164.935 21.0081 163.755 22.1649L154.114 31.6124C153.647 32.0705 153.433 32.7283 153.542 33.3736L155.788 46.6833C156.063 48.313 154.355 49.554 152.89 48.7888L140.926 42.5397C140.346 42.2366 139.654 42.2366 139.074 42.5397L127.11 48.7888C125.645 49.554 123.937 48.313 124.212 46.6833L126.458 33.3736C126.567 32.7283 126.353 32.0705 125.886 31.6124L116.245 22.1649C115.065 21.0081 115.717 19.0001 117.352 18.7581L130.705 16.7814C131.352 16.6856 131.912 16.279 132.203 15.6929L138.209 3.60489Z" fill="#FEA500"/>
<path d="M194.209 3.60489C194.944 2.12477 197.056 2.12478 197.791 3.60489L203.797 15.6929C204.088 16.279 204.648 16.6856 205.295 16.7814L218.648 18.7581C220.283 19.0001 220.935 21.0081 219.755 22.1649L210.114 31.6124C209.647 32.0705 209.433 32.7283 209.542 33.3736L211.788 46.6833C212.063 48.313 210.355 49.554 208.89 48.7888L196.926 42.5397C196.346 42.2366 195.654 42.2366 195.074 42.5397L183.11 48.7888C181.645 49.554 179.937 48.313 180.212 46.6833L182.458 33.3736C182.567 32.7283 182.353 32.0705 181.886 31.6124L172.245 22.1649C171.065 21.0081 171.717 19.0001 173.352 18.7581L186.705 16.7814C187.352 16.6856 187.912 16.279 188.203 15.6929L194.209 3.60489Z" fill="#FEA500"/>
<path d="M250.209 3.60489C250.944 2.12477 253.056 2.12478 253.791 3.60489L259.797 15.6929C260.088 16.279 260.648 16.6856 261.295 16.7814L274.648 18.7581C276.283 19.0001 276.935 21.0081 275.755 22.1649L266.114 31.6124C265.647 32.0705 265.433 32.7283 265.542 33.3736L267.788 46.6833C268.063 48.313 266.355 49.554 264.89 48.7888L252.926 42.5397C252.346 42.2366 251.654 42.2366 251.074 42.5397L239.11 48.7888C237.645 49.554 235.937 48.313 236.212 46.6833L238.458 33.3736C238.567 32.7283 238.353 32.0705 237.886 31.6124L228.245 22.1649C227.065 21.0081 227.717 19.0001 229.352 18.7581L242.705 16.7814C243.352 16.6856 243.912 16.279 244.203 15.6929L250.209 3.60489Z" fill="#FEA500"/>
<path d="M310.316 48.576C308.428 48.576 306.604 48.224 304.844 47.52C303.084 46.784 301.58 45.76 300.332 44.448C299.084 43.104 298.268 41.504 297.884 39.648L304.46 37.44C304.94 38.976 305.708 40.096 306.764 40.8C307.82 41.504 309.004 41.856 310.316 41.856C311.436 41.856 312.412 41.632 313.244 41.184C314.076 40.704 314.716 40.048 315.164 39.216C315.644 38.352 315.884 37.36 315.884 36.24C315.884 35.12 315.644 34.144 315.164 33.312C314.716 32.48 314.076 31.84 313.244 31.392C312.412 30.912 311.436 30.672 310.316 30.672C309.164 30.672 308.14 30.928 307.244 31.44C306.348 31.92 305.692 32.672 305.276 33.696L299.18 32.256L302.06 12.24H322.028V18.48H305.084L307.868 15.12L305.9 30L303.884 28.224C304.684 26.912 305.692 25.952 306.908 25.344C308.156 24.736 309.756 24.432 311.708 24.432C314.108 24.432 316.172 24.944 317.9 25.968C319.628 26.96 320.956 28.336 321.884 30.096C322.844 31.856 323.324 33.904 323.324 36.24C323.324 38.576 322.748 40.688 321.596 42.576C320.476 44.432 318.94 45.904 316.988 46.992C315.036 48.048 312.812 48.576 310.316 48.576ZM331.833 48V40.8H339.033V48H331.833ZM362.034 48.576C359.186 48.576 356.674 47.808 354.498 46.272C352.354 44.736 350.674 42.576 349.458 39.792C348.242 37.008 347.634 33.776 347.634 30.096C347.634 26.384 348.226 23.152 349.41 20.4C350.626 17.648 352.306 15.504 354.45 13.968C356.626 12.432 359.138 11.664 361.986 11.664C364.898 11.664 367.426 12.432 369.57 13.968C371.746 15.504 373.426 17.664 374.61 20.448C375.826 23.2 376.434 26.416 376.434 30.096C376.434 33.776 375.826 37.008 374.61 39.792C373.426 42.544 371.746 44.704 369.57 46.272C367.426 47.808 364.914 48.576 362.034 48.576ZM362.082 41.856C363.554 41.856 364.802 41.392 365.826 40.464C366.85 39.536 367.634 38.192 368.178 36.432C368.722 34.672 368.994 32.56 368.994 30.096C368.994 27.632 368.722 25.536 368.178 23.808C367.634 22.048 366.834 20.704 365.778 19.776C364.754 18.848 363.49 18.384 361.986 18.384C360.514 18.384 359.266 18.848 358.242 19.776C357.218 20.704 356.434 22.048 355.89 23.808C355.346 25.536 355.074 27.632 355.074 30.096C355.074 32.528 355.346 34.624 355.89 36.384C356.434 38.144 357.218 39.504 358.242 40.464C359.298 41.392 360.578 41.856 362.082 41.856Z" fill="#FEA500"/>
</svg>
